# xmcd CD database file
#
# Track frame offsets:
#	150
#	18400
#	39925
#
# Disc length: 615 seconds
#
# Revision: 0
# Processed by: cddbd v1.5PL3 Copyright (c) Steve Scherf et al.
# Submitted via: CDex 1.50
#
DISCID=17026503
DTITLE=山崎まさよし - 中華料理
DYEAR=1996
DGENRE=Blues
TTITLE0=中華料理
TTITLE1=週末には食事をしよう
TTITLE2=mud skiffle track II
EXTD=YEAR: 1996
EXTT0=
EXTT1=
EXTT2=
PLAYORDER=
